<svg width="77" height="77" viewBox="0 0 77 77" fill="none" xmlns="http://www.w3.org/2000/svg">
<path d="M3.20825 64.1667V51.3334C3.20825 49.5153 3.83655 47.9914 5.09315 46.7615C6.34975 45.5316 7.86034 44.9167 9.62492 44.9167H20.1322C21.2017 44.9167 22.2176 45.1841 23.1801 45.7188C24.1426 46.2535 24.918 46.9754 25.5062 47.8844C27.0569 49.9698 28.9685 51.6007 31.2411 52.7771C33.5136 53.9535 35.9333 54.5417 38.4999 54.5417C41.1201 54.5417 43.5664 53.9535 45.839 52.7771C48.1116 51.6007 49.9964 49.9698 51.4937 47.8844C52.1888 46.9754 53.0043 46.2535 53.94 45.7188C54.8758 45.1841 55.8517 44.9167 56.8676 44.9167H67.3749C69.193 44.9167 70.7169 45.5316 71.9468 46.7615C73.1767 47.9914 73.7916 49.5153 73.7916 51.3334V64.1667H51.3333V56.8677C49.4617 58.2046 47.4431 59.2205 45.2775 59.9157C43.1119 60.6108 40.8527 60.9584 38.4999 60.9584C36.2006 60.9584 33.9548 60.5974 31.7624 59.8756C29.5701 59.1537 27.5381 58.1243 25.6666 56.7875V64.1667H3.20825ZM38.4999 51.3334C36.468 51.3334 34.543 50.8655 32.7249 49.9297C30.9069 48.994 29.3829 47.6973 28.153 46.0396C27.244 44.7028 26.1077 43.6467 24.7442 42.8714C23.3806 42.096 21.8968 41.7084 20.2926 41.7084C21.469 39.7299 23.9555 38.1658 27.752 37.0162C31.5485 35.8665 35.1312 35.2917 38.4999 35.2917C41.8687 35.2917 45.4513 35.8665 49.2478 37.0162C53.0444 38.1658 55.5308 39.7299 56.7072 41.7084C55.1565 41.7084 53.686 42.096 52.2958 42.8714C50.9055 43.6467 49.7558 44.7028 48.8468 46.0396C47.6704 47.7507 46.1732 49.0608 44.3551 49.9698C42.5371 50.8789 40.5853 51.3334 38.4999 51.3334ZM12.8333 41.7084C10.1596 41.7084 7.88707 40.7726 6.01554 38.9011C4.14402 37.0296 3.20825 34.757 3.20825 32.0834C3.20825 29.3563 4.14402 27.0704 6.01554 25.2256C7.88707 23.3808 10.1596 22.4584 12.8333 22.4584C15.5603 22.4584 17.8463 23.3808 19.6911 25.2256C21.5359 27.0704 22.4583 29.3563 22.4583 32.0834C22.4583 34.757 21.5359 37.0296 19.6911 38.9011C17.8463 40.7726 15.5603 41.7084 12.8333 41.7084ZM64.1666 41.7084C61.493 41.7084 59.2204 40.7726 57.3489 38.9011C55.4774 37.0296 54.5416 34.757 54.5416 32.0834C54.5416 29.3563 55.4774 27.0704 57.3489 25.2256C59.2204 23.3808 61.493 22.4584 64.1666 22.4584C66.8937 22.4584 69.1796 23.3808 71.0244 25.2256C72.8692 27.0704 73.7916 29.3563 73.7916 32.0834C73.7916 34.757 72.8692 37.0296 71.0244 38.9011C69.1796 40.7726 66.8937 41.7084 64.1666 41.7084ZM38.4999 32.0834C35.8263 32.0834 33.5537 31.1476 31.6822 29.2761C29.8107 27.4046 28.8749 25.132 28.8749 22.4584C28.8749 19.7313 29.8107 17.4454 31.6822 15.6006C33.5537 13.7558 35.8263 12.8334 38.4999 12.8334C41.227 12.8334 43.5129 13.7558 45.3577 15.6006C47.2025 17.4454 48.1249 19.7313 48.1249 22.4584C48.1249 25.132 47.2025 27.4046 45.3577 29.2761C43.5129 31.1476 41.227 32.0834 38.4999 32.0834Z" fill="#146781"/>
</svg>
