<svg width="116" height="116" viewBox="0 0 116 116" fill="none" xmlns="http://www.w3.org/2000/svg">
<path d="M46.1583 73.225L87.1208 32.2625C88.0874 31.2958 89.2354 30.8125 90.5645 30.8125C91.8937 30.8125 93.0416 31.2958 94.0083 32.2625C94.9749 33.2292 95.4583 34.3771 95.4583 35.7063C95.4583 37.0354 94.9749 38.1833 94.0083 39.15L49.5416 83.6167C48.5749 84.5833 47.4472 85.0667 46.1583 85.0667C44.8694 85.0667 43.7416 84.5833 42.7749 83.6167L21.9916 62.8333C21.0249 61.8667 20.5617 60.7188 20.602 59.3896C20.6423 58.0604 21.1458 56.9125 22.1124 55.9458C23.0791 54.9792 24.227 54.4958 25.5562 54.4958C26.8854 54.4958 28.0333 54.9792 28.9999 55.9458L46.1583 73.225Z" fill="black"/>
</svg>
