<svg width="77" height="77" viewBox="0 0 77 77" fill="none" xmlns="http://www.w3.org/2000/svg">
<g clip-path="url(#clip0_941_224)">
<path d="M0 57.75V52.6969C0 50.3976 1.17639 48.526 3.52917 47.0823C5.88194 45.6385 8.98333 44.9167 12.8333 44.9167C13.5285 44.9167 14.1969 44.93 14.8385 44.9568C15.4802 44.9835 16.0951 45.0503 16.6833 45.1573C15.9347 46.2802 15.3733 47.4566 14.999 48.6865C14.6247 49.9163 14.4375 51.1997 14.4375 52.5365V57.75H0ZM19.25 57.75V52.5365C19.25 50.8253 19.7179 49.2613 20.6536 47.8443C21.5894 46.4273 22.9128 45.184 24.624 44.1146C26.3351 43.0451 28.3804 42.2431 30.7599 41.7083C33.1394 41.1736 35.7194 40.9062 38.5 40.9062C41.334 40.9062 43.9408 41.1736 46.3203 41.7083C48.6998 42.2431 50.7451 43.0451 52.4562 44.1146C54.1674 45.184 55.4774 46.4273 56.3865 47.8443C57.2955 49.2613 57.75 50.8253 57.75 52.5365V57.75H19.25ZM62.5625 57.75V52.5365C62.5625 51.1462 62.3887 49.8361 62.0411 48.6062C61.6936 47.3764 61.1722 46.2267 60.4771 45.1573C61.0653 45.0503 61.6668 44.9835 62.2818 44.9568C62.8967 44.93 63.525 44.9167 64.1667 44.9167C68.0167 44.9167 71.1181 45.6252 73.4708 47.0422C75.8236 48.4592 77 50.3441 77 52.6969V57.75H62.5625ZM26.0677 51.3333H51.0125C50.4778 50.2639 48.9939 49.3281 46.5609 48.526C44.1279 47.724 41.441 47.3229 38.5 47.3229C35.559 47.3229 32.872 47.724 30.4391 48.526C28.0061 49.3281 26.549 50.2639 26.0677 51.3333ZM12.8333 41.7083C11.0687 41.7083 9.55816 41.08 8.30156 39.8234C7.04497 38.5668 6.41667 37.0562 6.41667 35.2917C6.41667 33.4736 7.04497 31.9497 8.30156 30.7198C9.55816 29.4899 11.0687 28.875 12.8333 28.875C14.6514 28.875 16.1753 29.4899 17.4052 30.7198C18.6351 31.9497 19.25 33.4736 19.25 35.2917C19.25 37.0562 18.6351 38.5668 17.4052 39.8234C16.1753 41.08 14.6514 41.7083 12.8333 41.7083ZM64.1667 41.7083C62.4021 41.7083 60.8915 41.08 59.6349 39.8234C58.3783 38.5668 57.75 37.0562 57.75 35.2917C57.75 33.4736 58.3783 31.9497 59.6349 30.7198C60.8915 29.4899 62.4021 28.875 64.1667 28.875C65.9847 28.875 67.5087 29.4899 68.7385 30.7198C69.9684 31.9497 70.5833 33.4736 70.5833 35.2917C70.5833 37.0562 69.9684 38.5668 68.7385 39.8234C67.5087 41.08 65.9847 41.7083 64.1667 41.7083ZM38.5 38.5C35.8264 38.5 33.5538 37.5642 31.6823 35.6927C29.8108 33.8212 28.875 31.5486 28.875 28.875C28.875 26.1479 29.8108 23.862 31.6823 22.0172C33.5538 20.1724 35.8264 19.25 38.5 19.25C41.2271 19.25 43.513 20.1724 45.3578 22.0172C47.2026 23.862 48.125 26.1479 48.125 28.875C48.125 31.5486 47.2026 33.8212 45.3578 35.6927C43.513 37.5642 41.2271 38.5 38.5 38.5ZM38.5 32.0833C39.409 32.0833 40.171 31.7759 40.7859 31.1609C41.4009 30.546 41.7083 29.784 41.7083 28.875C41.7083 27.966 41.4009 27.204 40.7859 26.5891C40.171 25.9741 39.409 25.6667 38.5 25.6667C37.591 25.6667 36.829 25.9741 36.2141 26.5891C35.5991 27.204 35.2917 27.966 35.2917 28.875C35.2917 29.784 35.5991 30.546 36.2141 31.1609C36.829 31.7759 37.591 32.0833 38.5 32.0833Z" fill="#146781"/>
</g>
<defs>
<clipPath id="clip0_941_224">
<rect width="77" height="77" fill="white"/>
</clipPath>
</defs>
</svg>
