<svg width="77" height="77" viewBox="0 0 77 77" fill="none" xmlns="http://www.w3.org/2000/svg">
<path d="M33.6875 49.7291H43.3125V41.7083H51.3334V32.0833H43.3125V24.0625H33.6875V32.0833H25.6667V41.7083H33.6875V49.7291ZM38.5 70.5833C31.0674 68.7118 24.9315 64.4474 20.0922 57.7901C15.253 51.1328 12.8334 43.7402 12.8334 35.6125V16.0416L38.5 6.41663L64.1667 16.0416V35.6125C64.1667 43.7402 61.7471 51.1328 56.9079 57.7901C52.0686 64.4474 45.9327 68.7118 38.5 70.5833ZM38.5 63.8458C44.0612 62.0812 48.6598 58.552 52.2959 53.2583C55.932 47.9645 57.75 42.0826 57.75 35.6125V20.4531L38.5 13.2343L19.25 20.4531V35.6125C19.25 42.0826 21.0681 47.9645 24.7042 53.2583C28.3403 58.552 32.9389 62.0812 38.5 63.8458Z" fill="#146781"/>
</svg>
