<svg width="77" height="77" viewBox="0 0 77 77" fill="none" xmlns="http://www.w3.org/2000/svg">
<path d="M49.0876 53.5791L53.5792 49.0875L41.7084 37.2166V22.4583H35.2917V39.7833L49.0876 53.5791ZM38.5001 70.5833C34.0619 70.5833 29.8911 69.7411 25.9876 68.0567C22.0841 66.3724 18.6886 64.0864 15.8011 61.1989C12.9136 58.3114 10.6277 54.9159 8.94331 51.0125C7.25894 47.109 6.41675 42.9382 6.41675 38.5C6.41675 34.0618 7.25894 29.8909 8.94331 25.9875C10.6277 22.084 12.9136 18.6885 15.8011 15.801C18.6886 12.9135 22.0841 10.6276 25.9876 8.94319C29.8911 7.25881 34.0619 6.41663 38.5001 6.41663C42.9383 6.41663 47.1091 7.25881 51.0126 8.94319C54.9161 10.6276 58.3115 12.9135 61.199 15.801C64.0865 18.6885 66.3725 22.084 68.0569 25.9875C69.7412 29.8909 70.5834 34.0618 70.5834 38.5C70.5834 42.9382 69.7412 47.109 68.0569 51.0125C66.3725 54.9159 64.0865 58.3114 61.199 61.1989C58.3115 64.0864 54.9161 66.3724 51.0126 68.0567C47.1091 69.7411 42.9383 70.5833 38.5001 70.5833ZM38.5001 64.1666C45.6119 64.1666 51.6676 61.6668 56.6673 56.6671C61.6669 51.6675 64.1667 45.6118 64.1667 38.5C64.1667 31.3882 61.6669 25.3324 56.6673 20.3328C51.6676 15.3331 45.6119 12.8333 38.5001 12.8333C31.3883 12.8333 25.3325 15.3331 20.3329 20.3328C15.3332 25.3324 12.8334 31.3882 12.8334 38.5C12.8334 45.6118 15.3332 51.6675 20.3329 56.6671C25.3325 61.6668 31.3883 64.1666 38.5001 64.1666Z" fill="#146781"/>
</svg>
