<svg width="77" height="77" viewBox="0 0 77 77" fill="none" xmlns="http://www.w3.org/2000/svg">
<path d="M38.5 56.1458C42.1361 56.1458 45.438 55.1165 48.4057 53.0578C51.3734 50.9991 53.5257 48.2854 54.8625 44.9166H22.1375C23.4743 48.2854 25.6265 50.9991 28.5942 53.0578C31.5619 55.1165 34.8638 56.1458 38.5 56.1458ZM25.025 35.2916L28.5541 31.9229L31.9229 35.2916L35.2916 31.9229L28.5541 25.025L21.6562 31.9229L25.025 35.2916ZM45.077 35.2916L48.4458 31.9229L51.975 35.2916L55.3437 31.9229L48.4458 25.025L41.7083 31.9229L45.077 35.2916ZM38.5 70.5833C34.0618 70.5833 29.8909 69.7411 25.9875 68.0567C22.084 66.3724 18.6885 64.0864 15.801 61.1989C12.9135 58.3114 10.6276 54.9159 8.94319 51.0125C7.25881 47.109 6.41663 42.9382 6.41663 38.5C6.41663 34.0618 7.25881 29.8909 8.94319 25.9875C10.6276 22.084 12.9135 18.6885 15.801 15.801C18.6885 12.9135 22.084 10.6276 25.9875 8.94319C29.8909 7.25881 34.0618 6.41663 38.5 6.41663C42.9382 6.41663 47.109 7.25881 51.0125 8.94319C54.9159 10.6276 58.3114 12.9135 61.1989 15.801C64.0864 18.6885 66.3724 22.084 68.0567 25.9875C69.7411 29.8909 70.5833 34.0618 70.5833 38.5C70.5833 42.9382 69.7411 47.109 68.0567 51.0125C66.3724 54.9159 64.0864 58.3114 61.1989 61.1989C58.3114 64.0864 54.9159 66.3724 51.0125 68.0567C47.109 69.7411 42.9382 70.5833 38.5 70.5833ZM38.5 64.1666C45.6652 64.1666 51.7343 61.6802 56.7072 56.7072C61.6802 51.7343 64.1666 45.6652 64.1666 38.5C64.1666 31.3347 61.6802 25.2656 56.7072 20.2927C51.7343 15.3198 45.6652 12.8333 38.5 12.8333C31.3347 12.8333 25.2656 15.3198 20.2927 20.2927C15.3198 25.2656 12.8333 31.3347 12.8333 38.5C12.8333 45.6652 15.3198 51.7343 20.2927 56.7072C25.2656 61.6802 31.3347 64.1666 38.5 64.1666Z" fill="#146781"/>
</svg>
