<svg width="651" height="553" viewBox="0 0 651 553" fill="none" xmlns="http://www.w3.org/2000/svg">
<g clip-path="url(#clip0_947_43)">
<path d="M382.298 141.966H362.998C362.014 141.965 361.07 141.573 360.374 140.877C359.679 140.18 359.287 139.235 359.286 138.25V118.925C359.287 117.939 359.679 116.995 360.374 116.298C361.07 115.601 362.014 115.21 362.998 115.208H382.298C383.282 115.21 384.226 115.601 384.922 116.298C385.617 116.995 386.009 117.939 386.01 118.925V138.25C386.009 139.235 385.617 140.18 384.922 140.877C384.226 141.573 383.282 141.965 382.298 141.966ZM362.998 116.695C362.407 116.696 361.841 116.931 361.424 117.349C361.006 117.767 360.771 118.334 360.771 118.925V138.25C360.771 138.841 361.006 139.408 361.424 139.826C361.841 140.244 362.407 140.479 362.998 140.48H382.298C382.889 140.479 383.455 140.244 383.872 139.826C384.29 139.408 384.525 138.841 384.525 138.25V118.925C384.525 118.334 384.29 117.767 383.872 117.349C383.455 116.931 382.889 116.696 382.298 116.695H362.998Z" fill="#4AB3D3"/>
<path d="M157.373 26.7581H138.073C137.089 26.7569 136.145 26.365 135.449 25.6683C134.754 24.9716 134.362 24.027 134.361 23.0417V3.7164C134.362 2.73109 134.754 1.78647 135.449 1.08975C136.145 0.393037 137.089 0.00112722 138.073 0H157.373C158.357 0.00112722 159.301 0.393037 159.996 1.08975C160.692 1.78647 161.084 2.73109 161.085 3.7164V23.0417C161.084 24.027 160.692 24.9716 159.996 25.6683C159.301 26.365 158.357 26.7569 157.373 26.7581ZM138.073 1.48656C137.482 1.4872 136.916 1.72234 136.499 2.14038C136.081 2.55841 135.846 3.12521 135.846 3.7164V23.0417C135.846 23.6329 136.081 24.1997 136.499 24.6177C136.916 25.0357 137.482 25.2709 138.073 25.2715H157.373C157.964 25.2709 158.53 25.0357 158.947 24.6177C159.365 24.1997 159.6 23.6329 159.6 23.0417V3.7164C159.6 3.12521 159.365 2.55841 158.947 2.14038C158.53 1.72234 157.964 1.4872 157.373 1.48656H138.073Z" fill="#177491"/>
<path d="M370.421 132.304H351.121C350.137 132.303 349.193 131.911 348.497 131.214C347.801 130.517 347.41 129.573 347.409 128.587V109.262C347.41 108.277 347.801 107.332 348.497 106.635C349.193 105.939 350.137 105.547 351.121 105.546H370.421C371.405 105.547 372.349 105.939 373.044 106.635C373.74 107.332 374.132 108.277 374.133 109.262V128.587C374.132 129.573 373.74 130.517 373.044 131.214C372.349 131.911 371.405 132.303 370.421 132.304ZM351.121 107.032C350.53 107.033 349.964 107.268 349.547 107.686C349.129 108.104 348.894 108.671 348.894 109.262V128.587C348.894 129.179 349.129 129.745 349.547 130.163C349.964 130.581 350.53 130.817 351.121 130.817H370.421C371.011 130.817 371.578 130.581 371.995 130.163C372.413 129.745 372.647 129.179 372.648 128.587V109.262C372.647 108.671 372.413 108.104 371.995 107.686C371.578 107.268 371.011 107.033 370.421 107.032H351.121Z" fill="#3F3D56"/>
<path d="M34.8893 293.595H15.5888C14.6048 293.594 13.6614 293.202 12.9656 292.506C12.2697 291.809 11.8783 290.864 11.8772 289.879V270.554C11.8783 269.568 12.2697 268.624 12.9656 267.927C13.6614 267.23 14.6048 266.839 15.5888 266.837H34.8893C35.8734 266.839 36.8168 267.23 37.5126 267.927C38.2084 268.624 38.5998 269.568 38.601 270.554V289.879C38.5998 290.864 38.2084 291.809 37.5126 292.506C36.8168 293.202 35.8734 293.594 34.8893 293.595ZM15.5888 268.324C14.9984 268.325 14.4323 268.56 14.0148 268.978C13.5973 269.396 13.3625 269.963 13.3619 270.554V289.879C13.3625 290.47 13.5973 291.037 14.0148 291.455C14.4323 291.873 14.9984 292.108 15.5888 292.109H34.8893C35.4798 292.108 36.0458 291.873 36.4633 291.455C36.8808 291.037 37.1157 290.47 37.1163 289.879V270.554C37.1157 269.963 36.8808 269.396 36.4633 268.978C36.0458 268.56 35.4798 268.325 34.8893 268.324H15.5888Z" fill="#E6E6E6"/>
<path d="M23.0121 283.933H3.71163C2.72759 283.932 1.78418 283.54 1.08836 282.843C0.392533 282.146 0.00112578 281.202 0 280.216V260.891C0.00112578 259.906 0.392533 258.961 1.08836 258.264C1.78418 257.568 2.72759 257.176 3.71163 257.175H23.0121C23.9962 257.176 24.9396 257.568 25.6354 258.264C26.3312 258.961 26.7226 259.906 26.7238 260.891V280.216C26.7226 281.202 26.3312 282.146 25.6354 282.843C24.9396 283.54 23.9962 283.932 23.0121 283.933ZM3.71163 258.661C3.1212 258.662 2.55513 258.897 2.13763 259.315C1.72013 259.733 1.4853 260.3 1.48465 260.891V280.216C1.4853 280.808 1.72013 281.374 2.13763 281.792C2.55513 282.21 3.1212 282.446 3.71163 282.446H23.0121C23.6026 282.446 24.1686 282.21 24.5861 281.792C25.0036 281.374 25.2385 280.808 25.2391 280.216V260.891C25.2385 260.3 25.0036 259.733 24.5861 259.315C24.1686 258.897 23.6026 258.662 23.0121 258.661H3.71163Z" fill="#E6E6E6"/>
<path d="M68.6128 63.9507H247.228C255.847 63.9507 264.21 66.8869 270.941 72.2767C277.673 77.6665 282.373 85.1891 284.269 93.608L374.519 494.434C375.504 498.806 375.521 503.341 374.57 507.72C373.619 512.1 371.723 516.218 369.015 519.786C366.306 523.354 362.851 526.286 358.891 528.375C354.932 530.465 350.563 531.662 346.093 531.883L162.475 540.941C152.643 541.426 142.97 538.313 135.262 532.182C127.554 526.051 122.337 517.321 120.585 507.622L69.3895 224.233L65.5808 225.323L55.7849 171.61L59.7055 170.628L45.415 91.5245C44.8029 88.1363 44.9448 84.6546 45.8307 81.3277C46.7165 78.0007 48.3245 74.9104 50.54 72.2771C52.7554 69.6437 55.5238 67.5322 58.6477 66.093C61.7716 64.6537 65.1742 63.9223 68.6128 63.9507Z" fill="#3F3D56"/>
<path d="M223.714 72.5914H244.563C250.551 72.5914 256.359 74.6419 261.022 78.4023C265.685 82.1628 268.924 87.4071 270.201 93.2646L356.829 490.821C357.328 493.11 357.327 495.479 356.827 497.768C356.328 500.057 355.341 502.211 353.933 504.082C352.526 505.954 350.732 507.5 348.674 508.613C346.615 509.727 344.341 510.383 342.007 510.537L158.983 522.547C153.819 522.886 148.712 521.309 144.636 518.118C140.559 514.927 137.799 510.345 136.882 505.246L62.9612 94.3325C62.4827 91.6729 62.5931 88.9406 63.2844 86.3284C63.9758 83.7161 65.2313 81.2876 66.9623 79.2143C68.6933 77.1409 70.8577 75.4732 73.3027 74.3289C75.7478 73.1846 78.4138 72.5915 81.1127 72.5915H100.892C102.806 72.5915 104.667 73.2234 106.187 74.3893C107.706 75.5553 108.799 77.1903 109.297 79.0412C109.737 80.6752 110.702 82.1187 112.043 83.148C113.384 84.1774 115.027 84.7352 116.717 84.7352H210.617C213.926 84.7352 217.113 83.4844 219.542 81.233C221.97 78.9815 223.46 75.8953 223.714 72.5914Z" fill="white"/>
<path d="M77.202 140.187H275.757L296.909 235.62L95.7602 239.336L77.202 140.187Z" fill="#177491"/>
<path d="M265.753 320.914H312.498L313.983 329.874H267.238L265.753 320.914Z" fill="#177491"/>
<path d="M303.786 275.204L105.537 279.407L105.556 280.342L303.806 276.138L303.786 275.204Z" fill="#2F2E41"/>
<path d="M309.849 302.761L107.868 307.432L107.89 308.366L309.871 303.695L309.849 302.761Z" fill="#2F2E41"/>
<path d="M285.053 416.797H331.799L333.283 425.757H286.538L285.053 416.797Z" fill="#177491"/>
<path d="M323.087 371.087L124.837 375.291L124.857 376.225L323.106 372.021L323.087 371.087Z" fill="#2F2E41"/>
<path d="M329.15 398.644L127.169 403.315L127.19 404.249L329.171 399.578L329.15 398.644Z" fill="#2F2E41"/>
<path d="M456.947 543.491L448.102 543.49L443.894 509.332L456.948 509.332L456.947 543.491Z" fill="#A0616A"/>
<path d="M459.202 552.076L430.683 552.075V551.714C430.683 548.766 431.853 545.939 433.934 543.855C436.016 541.77 438.839 540.599 441.783 540.599L459.203 540.6L459.202 552.076Z" fill="#2F2E41"/>
<path d="M566.823 537.692L558.214 539.722L546.298 507.439L559.004 504.442L566.823 537.692Z" fill="#A0616A"/>
<path d="M570.984 545.531L543.224 552.076L543.141 551.724C542.467 548.855 542.958 545.835 544.507 543.328C546.056 540.821 548.536 539.034 551.402 538.358L568.357 534.36L570.984 545.531Z" fill="#2F2E41"/>
<path d="M455.139 399.413C455.156 397.633 455.683 355.623 467.183 339.738L467.353 339.504L507.433 345.04L506.537 353.858C508.3 355.575 522.167 370.083 526.171 404.441L568.712 518.842L548.935 520.642L490.391 395.758L459.41 531.507H439.804L455.139 399.413Z" fill="#2F2E41"/>
<path d="M462.488 341.288L466.406 320.693C465.639 319.704 462.241 314.957 462.997 309.392C463.491 305.762 465.655 302.578 469.432 299.928L479.587 276.202L479.723 276.122C480.407 275.718 496.576 266.357 505.391 275.189C505.611 275.36 527.314 292.61 518.599 315.88L507.84 348.202L462.488 341.288Z" fill="#177491"/>
<path d="M448.857 369.151C449.914 369.03 450.931 368.679 451.837 368.122C452.743 367.565 453.516 366.816 454.102 365.927C454.688 365.038 455.072 364.032 455.227 362.979C455.382 361.925 455.305 360.851 455 359.831L475.971 344.702L463.417 339.921L445.427 355.02C443.75 355.646 442.359 356.866 441.52 358.449C440.681 360.033 440.451 361.869 440.874 363.611C441.296 365.353 442.343 366.879 443.814 367.9C445.285 368.921 447.08 369.366 448.857 369.151Z" fill="#A0616A"/>
<path d="M452.711 344.677L484.728 319.42L475.21 286.858C474.761 285.316 474.634 283.699 474.837 282.105C475.04 280.512 475.569 278.978 476.389 277.599C477.149 276.298 478.172 275.17 479.392 274.289C480.613 273.407 482.004 272.79 483.476 272.477C488.957 271.316 493.932 274.389 498.261 281.612L498.294 281.677C499.01 283.43 515.689 324.714 502.954 333.542C490.495 342.178 461.606 354.75 461.316 354.876L460.977 355.023L452.711 344.677Z" fill="#177491"/>
<path d="M495.263 266.602C505.975 266.602 514.658 257.907 514.658 247.182C514.658 236.457 505.975 227.762 495.263 227.762C484.551 227.762 475.868 236.457 475.868 247.182C475.868 257.907 484.551 266.602 495.263 266.602Z" fill="#A0616A"/>
<path d="M525.67 240.249C535.147 240.249 542.829 232.557 542.829 223.069C542.829 213.58 535.147 205.888 525.67 205.888C516.194 205.888 508.512 213.58 508.512 223.069C508.512 232.557 516.194 240.249 525.67 240.249Z" fill="#2F2E41"/>
<path d="M540.47 237.295C538.249 238.903 535.676 239.954 532.967 240.361C530.257 240.769 527.489 240.52 524.895 239.637C522.3 238.754 519.955 237.261 518.055 235.284C516.155 233.308 514.755 230.904 513.973 228.274C514.269 230.631 515.05 232.9 516.266 234.939C517.482 236.978 519.107 238.743 521.039 240.122C522.97 241.5 525.166 242.463 527.488 242.949C529.81 243.434 532.207 243.433 534.529 242.944C536.85 242.456 539.045 241.491 540.975 240.11C542.905 238.729 544.528 236.962 545.741 234.922C546.955 232.881 547.733 230.611 548.026 228.254C548.319 225.897 548.121 223.505 547.445 221.229C547.829 224.287 547.384 227.392 546.157 230.219C544.93 233.046 542.966 235.49 540.47 237.295Z" fill="#2F2E41"/>
<path d="M472.756 237.314C475.751 231.945 476.897 229.702 480.759 226.437C484.175 223.549 488.376 222.701 491.764 225.437C495.773 223.703 500.233 223.31 504.483 224.316C508.732 225.322 512.544 227.674 515.352 231.022C518.161 234.37 519.815 238.536 520.071 242.901C520.326 247.266 519.169 251.597 516.77 255.25C514.371 258.904 510.86 261.685 506.757 263.181C502.654 264.677 498.178 264.808 493.995 263.555C489.811 262.301 486.143 259.73 483.536 256.223C480.928 252.716 479.52 248.46 479.52 244.088C479.523 243.32 479.57 242.553 479.659 241.79C476.713 241.376 475.701 237.729 472.756 237.314Z" fill="#2F2E41"/>
<path d="M650.258 553H367.431C367.234 553 367.046 552.922 366.906 552.782C366.767 552.643 366.689 552.454 366.689 552.257C366.689 552.06 366.767 551.871 366.906 551.731C367.046 551.592 367.234 551.513 367.431 551.513H650.258C650.455 551.513 650.643 551.592 650.783 551.731C650.922 551.871 651 552.06 651 552.257C651 552.454 650.922 552.643 650.783 552.782C650.643 552.922 650.455 553 650.258 553Z" fill="#3F3D56"/>
</g>
<defs>
<clipPath id="clip0_947_43">
<rect width="651" height="553" fill="white"/>
</clipPath>
</defs>
</svg>
