<svg width="77" height="77" viewBox="0 0 77 77" fill="none" xmlns="http://www.w3.org/2000/svg">
<path d="M31.0407 43.9541L33.848 34.8104L26.4688 28.875H35.6125L38.5 19.8916L41.3875 28.875H50.5313L43.0719 34.8104L45.8792 43.9541L38.5 38.2593L31.0407 43.9541ZM19.25 73.7916V49.0073C17.2181 46.7614 15.6407 44.1948 14.5177 41.3073C13.3948 38.4198 12.8334 35.3451 12.8334 32.0833C12.8334 24.918 15.3198 18.8489 20.2927 13.876C25.2657 8.90308 31.3348 6.41663 38.5 6.41663C45.6653 6.41663 51.7344 8.90308 56.7073 13.876C61.6802 18.8489 64.1667 24.918 64.1667 32.0833C64.1667 35.3451 63.6052 38.4198 62.4823 41.3073C61.3594 44.1948 59.782 46.7614 57.75 49.0073V73.7916L38.5 67.375L19.25 73.7916ZM38.5 51.3333C43.8473 51.3333 48.3924 49.4618 52.1355 45.7187C55.8785 41.9757 57.75 37.4305 57.75 32.0833C57.75 26.7361 55.8785 22.1909 52.1355 18.4479C48.3924 14.7048 43.8473 12.8333 38.5 12.8333C33.1528 12.8333 28.6077 14.7048 24.8646 18.4479C21.1216 22.1909 19.25 26.7361 19.25 32.0833C19.25 37.4305 21.1216 41.9757 24.8646 45.7187C28.6077 49.4618 33.1528 51.3333 38.5 51.3333ZM25.6667 64.2468L38.5 60.9583L51.3334 64.2468V54.301C49.4618 55.3704 47.4433 56.2126 45.2776 56.8276C43.112 57.4425 40.8528 57.75 38.5 57.75C36.1473 57.75 33.8881 57.4425 31.7224 56.8276C29.5568 56.2126 27.5382 55.3704 25.6667 54.301V64.2468Z" fill="#146781"/>
</svg>
